<?xml version="1.0" encoding="UTF-8"?>
<svg version="1.1" xmlns="http://www.w3.org/2000/svg" width="291" height="295">
<path d="M0 0 C96.03 0 192.06 0 291 0 C291 97.35 291 194.7 291 295 C194.97 295 98.94 295 0 295 C0 197.65 0 100.3 0 0 Z " fill="#265CC1" transform="translate(0,0)"/>
<path d="M0 0 C96.03 0 192.06 0 291 0 C291 97.35 291 194.7 291 295 C194.97 295 98.94 295 0 295 C0 246.82 0 198.64 0 149 C4.21477659 151.10738829 5.1429094 152.42863675 8 156 C9.09948891 156.98389042 10.21915995 157.94539088 11.35083008 158.89208984 C17.40931411 164.13349732 22.98869824 169.86510179 28.63671875 175.5390625 C29.84619987 176.7504134 31.05590544 177.96154022 32.26582336 179.17245483 C35.43070378 182.34112717 38.59257121 185.51278903 41.75378418 188.68511963 C44.96750159 191.90908214 48.1840604 195.13020699 51.40039062 198.3515625 C56.59430578 203.55423018 61.78653563 208.7585723 66.97639465 213.96528625 C69.1225603 216.11822251 71.27013157 218.26968899 73.42144775 220.41748047 C76.54133841 223.54217129 79.64404078 226.68354074 82.74633789 229.82568359 C89.42062486 236.58149209 96.10750036 243.3246953 102.80170536 250.06076622 C106.84784812 254.13311163 110.88914366 258.21004598 114.92016602 262.29736328 C118.82484187 266.25620382 122.74146432 270.2028478 126.66680717 274.14119339 C128.16116876 275.64481087 129.65111423 277.15283035 131.13658333 278.66523361 C133.20734633 280.77208537 135.2930209 282.8629748 137.38305664 284.95068359 C137.99667053 285.58227386 138.61028442 286.21386414 139.24249268 286.86459351 C141.1153033 288.7737621 141.1153033 288.7737621 144 291 C147.4931863 290.5676675 149.05431474 289.28179034 151.4375 286.75 C152.27087891 285.87601562 152.27087891 285.87601562 153.12109375 284.984375 C153.74113281 284.32953125 154.36117187 283.6746875 155 283 C158.39852517 279.54447636 161.89114526 276.242339 165.49861145 273.006073 C166.60217357 272.01247724 167.7054937 271.01861267 168.80860901 270.02452087 C169.39232836 269.4989604 169.97604771 268.97339993 170.57745552 268.43191338 C184.19616228 256.15738322 197.58629127 243.65340405 210.86919117 231.01672173 C218.53740148 223.73159869 226.25950415 216.53133791 234.15991211 209.49804688 C277.50394573 171.93578618 277.50394573 171.93578618 295.15666199 119.46885681 C295.95465941 95.48118391 292.2330034 72.28223187 275.93639565 53.74017334 C269.93385294 47.39599445 263.36084478 41.8497839 256.55065918 36.40081787 C252.18894035 32.82971929 248.05022229 29.01471005 243.8828125 25.22070312 C235.78005956 17.90518006 227.48173797 10.87095775 219 4 C216.17410685 5.28474504 214.1415467 6.61574472 211.97108459 8.82878113 C211.40064926 9.40513809 210.83021393 9.98149506 210.24249268 10.57531738 C209.62887878 11.2055481 209.01526489 11.83577881 208.38305664 12.48510742 C207.7272612 13.15024857 207.07146576 13.81538971 206.39579773 14.50068665 C204.97396073 15.94350848 203.55430529 17.38848265 202.13658333 18.83534813 C199.89366691 21.12228169 197.64291239 23.40121026 195.38951111 25.67781067 C188.98400097 32.15055415 182.58677883 38.63130717 176.21020508 45.13256836 C172.30861558 49.10930705 168.39266517 53.07140154 164.46700859 57.02437782 C162.97229686 58.53523216 161.48316609 60.05162853 159.99971199 61.57353783 C157.92875686 63.69724621 155.84009463 65.80187981 153.74633789 67.90307617 C153.13474823 68.53937958 152.52315857 69.17568298 151.89303589 69.83126831 C147.77203526 73.9137539 147.77203526 73.9137539 144.5 74.27928162 C140.75443178 72.36262699 138.15766916 69.63800963 135.25366211 66.62841797 C134.59611435 65.96342285 133.93856659 65.29842773 133.26109314 64.61328125 C131.83638399 63.17001838 130.41628387 61.72219445 129.00028801 60.27038193 C126.76119271 57.97563503 124.50944893 55.69402712 122.25379944 53.41555786 C116.65630054 47.75656363 111.07887315 42.07794397 105.50543213 36.39526367 C100.79257173 31.5904965 96.07017063 26.79555741 91.33319283 22.0145607 C89.1096315 19.76223126 86.9011586 17.49576895 84.69261169 15.22872925 C83.33482833 13.85598573 81.97631204 12.48396663 80.61694336 11.11279297 C79.69652252 10.15598129 79.69652252 10.15598129 78.75750732 9.17984009 C76.88525938 7.25181739 76.88525938 7.25181739 74 5 C70.80545398 5.28405886 69.16376497 6.46496295 66.95089722 8.70179749 C66.3761264 9.27533463 65.80135559 9.84887177 65.20916748 10.43978882 C64.59084045 11.07204376 63.97251343 11.70429871 63.33544922 12.35571289 C62.34452774 13.35079613 62.34452774 13.35079613 61.33358765 14.36598206 C59.1503873 16.56147391 56.97777884 18.76716217 54.8046875 20.97265625 C53.29141827 22.49659803 51.77733862 24.01973545 50.26248169 25.542099 C46.27524475 29.55213794 42.29622216 33.57021764 38.31970215 37.59088135 C31.94862986 44.03210001 25.57008689 50.46584328 19.18237686 56.89056206 C16.94769546 59.14201315 14.71950631 61.39975362 12.4916687 63.65797424 C11.12996151 65.03013657 9.76800617 66.40205269 8.40576172 67.77368164 C7.78338623 68.40796082 7.16101074 69.04223999 6.51977539 69.69573975 C5.05071275 71.16889662 3.53018148 72.59043239 2 74 C1.34 74 0.68 74 0 74 C0 49.58 0 25.16 0 0 Z " fill="#FDFDFE" transform="translate(0,0)"/>
<path d="M0 0 C2.23135418 0.89969219 3.42112023 1.84653299 5.11491203 3.54524231 C5.70098732 4.12574844 6.28706261 4.70625458 6.89089775 5.30435181 C7.52171761 5.94438644 8.15253746 6.58442108 8.80247307 7.24385071 C9.47605354 7.91538681 10.14963402 8.58692291 10.84362602 9.27880859 C13.06933106 11.5015041 15.28410553 13.73476017 17.49876213 15.96846008 C19.03945942 17.51221417 20.58074743 19.05537891 22.12260246 20.59797668 C25.35170153 23.83167958 28.5758243 27.07023422 31.79612541 30.31269836 C35.93460391 34.47950655 40.08175507 38.63754411 44.23218727 42.79244232 C47.41356376 45.97796458 50.59209832 49.16630875 53.76958275 52.35571289 C55.29861707 53.89046375 56.82813359 55.42473436 58.3581295 56.95852661 C60.48936177 59.09659346 62.61716268 61.23801213 64.74387932 63.38056946 C65.3827961 64.0206041 66.02171288 64.66063873 66.67999077 65.32006836 C71.01438713 69.69752353 71.01438713 69.69752353 71.01438713 70.81221008 C23.82438713 70.81221008 -23.36561287 70.81221008 -71.98561287 70.81221008 C-67.92529729 66.07517524 -63.87369756 61.54012977 -59.49293709 57.12666321 C-58.87425758 56.49980621 -58.25557808 55.87294922 -57.61815071 55.22709656 C-55.59518948 53.17956685 -53.56831738 51.13598176 -51.54030037 49.09346008 C-50.84471142 48.39254745 -50.14912247 47.69163483 -49.43245506 46.96948242 C-45.76116231 43.27160329 -42.08630173 39.57730819 -38.40895271 35.88545227 C-35.36610702 32.82918972 -32.33072466 29.76579226 -29.30153084 26.69599915 C-25.63573361 22.98108848 -21.95800358 19.27841152 -18.27113914 15.58441162 C-16.86902104 14.17556019 -15.47117764 12.76244134 -14.07768059 11.34506226 C-12.13642522 9.37240575 -10.1802246 7.41587892 -8.21949959 5.46260071 C-7.6448597 4.87155548 -7.0702198 4.28051025 -6.47816658 3.67155457 C-2.50774538 -0.23717075 -2.50774538 -0.23717075 0 0 Z " fill="#275DC1" transform="translate(72.9856128692627,4.1877899169921875)"/>
<path d="M0 0 C46.86 0 93.72 0 142 0 C137.93968442 4.73703484 133.88808469 9.27208031 129.50732422 13.68554688 C128.88864471 14.31240387 128.26996521 14.93926086 127.63253784 15.58511353 C125.60957661 17.63264323 123.58270451 19.67622832 121.5546875 21.71875 C120.85909855 22.41966263 120.1635096 23.12057526 119.44684219 23.84272766 C115.77554944 27.54060679 112.10068887 31.23490189 108.42333984 34.92675781 C105.38049415 37.98302036 102.34511179 41.04641783 99.31591797 44.11621094 C95.65012074 47.8311216 91.97239071 51.53379856 88.28552628 55.22779846 C86.88340817 56.63664989 85.48556477 58.04976874 84.09206772 59.46714783 C82.15081235 61.43980433 80.19461174 63.39633117 78.23388672 65.34960938 C77.65924683 65.9406546 77.08460693 66.53169983 76.49255371 67.14065552 C74.87033081 68.7376709 74.87033081 68.7376709 72 71 C68.81284676 70.69445556 67.16069855 69.53566956 64.93743896 67.31166077 C64.35977783 66.74101395 63.7821167 66.17036713 63.18695068 65.58242798 C62.56548157 64.95331512 61.94401245 64.32420227 61.30371094 63.67602539 C60.63988403 63.01584915 59.97605713 62.35567291 59.29211426 61.67549133 C57.09873186 59.49021873 54.91639736 57.29426769 52.734375 55.09765625 C51.21602614 53.57878893 49.6971593 52.06043924 48.17779541 50.54258728 C44.99561722 47.36031936 41.81867477 44.17294234 38.64550781 40.98168945 C34.56927197 36.88273768 30.48202558 32.79498108 26.39104843 28.71074772 C23.25437616 25.57740939 20.12269844 22.43911894 16.99262238 19.29919243 C15.48679761 17.78950762 13.9796089 16.28118204 12.47106171 14.77421761 C10.36863116 12.67215607 8.27279156 10.56374455 6.17871094 8.45336914 C5.5491449 7.82628052 4.91957886 7.19919189 4.27093506 6.55310059 C0 2.22874087 0 2.22874087 0 0 Z " fill="#FCFDFE" transform="translate(2,76)"/>
<path d="M0 0 C0.42793382 0.37031908 0.85586763 0.74063816 1.29676914 1.12217903 C4.79898616 4.14033818 8.3353804 7.10363966 11.93252563 10.00775146 C21.37907022 17.65254396 30.49777692 25.6446722 39.4375 33.875 C40.18791565 34.56517212 40.9383313 35.25534424 41.71148682 35.96643066 C60.45141101 53.37056647 74.47829771 68.82602912 75.46031189 95.27487183 C75.70031622 110.91165636 73.87060075 126.65107354 71 142 C64.04283477 136.30783075 57.79450219 129.92111421 51.4609375 123.55859375 C50.2500268 122.34581395 49.03889215 121.13325772 47.82754517 119.9209137 C44.65443278 116.74400408 41.48433303 113.56410512 38.31488037 110.38354492 C35.09454505 107.15297602 31.87137863 103.92523451 28.6484375 100.69726562 C23.44195233 95.48202151 18.23715294 90.26510243 13.03471375 85.04582214 C7.5532494 79.39292081 7.5532494 79.39292081 1.71588135 74.12896729 C-0.75330115 71.06534708 -0.48135687 68.83403297 -0.45410156 64.93652344 C-0.45468567 64.23368225 -0.45526978 63.53084106 -0.45587158 62.80670166 C-0.45309139 60.49041848 -0.42200512 58.17543251 -0.390625 55.859375 C-0.38316232 54.2508413 -0.37746951 52.64229849 -0.37347412 51.03375244 C-0.35821977 46.80520415 -0.31894018 42.57720762 -0.2746582 38.34887695 C-0.2337009 34.03213973 -0.21546216 29.71531313 -0.1953125 25.3984375 C-0.15244528 16.93203879 -0.08419694 8.46608808 0 0 Z " fill="#275DC1" transform="translate(1,77)"/>
<path d="M0 0 C23.43 0 46.86 0 71 0 C70.67 1.32 70.34 2.64 70 4 C69.01 4.33 68.02 4.66 67 5 C65.61742541 6.39779556 65.61742541 6.39779556 64.3125 8.125 C61.49432949 11.54606271 58.41922705 14.38265217 55.02734375 17.2265625 C52.5685515 19.37741353 50.30278859 21.68270973 48 24 C47.21498108 24.78723953 46.42996216 25.57447906 45.62115479 26.38557434 C44.8003241 27.20942123 43.97949341 28.03326813 43.13378906 28.88208008 C38.51033219 33.52176853 33.88441967 38.15899994 29.25703812 42.79477406 C26.46382421 45.59323737 23.67156695 48.39264243 20.88134766 51.1940918 C18.17398196 53.91227934 15.46421891 56.62805506 12.75273895 59.34213829 C11.71997942 60.37674992 10.68810252 61.41224335 9.65711212 62.44861794 C8.22325863 63.88967458 6.78603369 65.3273743 5.34863281 66.76489258 C4.5309845 67.58476151 3.71333618 68.40463043 2.87091064 69.24934387 C1 71 1 71 0 71 C0 47.57 0 24.14 0 0 Z " fill="#FCFCFE" transform="translate(73,148)"/>
<path d="M0 0 C23.1 0 46.2 0 70 0 C68.4169955 3.166009 67.60975174 4.64055303 65.26733398 6.9866333 C64.71214081 7.54746613 64.15694763 8.10829895 63.58493042 8.68612671 C62.97811432 9.28889435 62.37129822 9.89166199 61.74609375 10.51269531 C61.10527863 11.15701508 60.4644635 11.80133484 59.80422974 12.46517944 C57.68698731 14.59121721 55.56252158 16.70986473 53.4375 18.828125 C51.96512033 20.30185161 50.49303769 21.77587504 49.02124023 23.25018311 C45.93765097 26.33672038 42.85047399 29.419612 39.76074219 32.5 C35.79245105 36.45687687 31.83323156 40.42269021 27.87663269 44.39125443 C24.84002756 47.43506975 21.79869583 50.47412617 18.75588989 53.51174164 C17.29351793 54.97277581 15.83264017 56.43530707 14.3732605 57.89933014 C12.33826292 59.93938125 10.29700916 61.9729537 8.25390625 64.00488281 C7.64709015 64.61574738 7.04027405 65.22661194 6.41506958 65.85598755 C2.22853029 70 2.22853029 70 0 70 C0 46.9 0 23.8 0 0 Z " fill="#FCFCFE" transform="translate(146,76)"/>
<path d="M0 0 C34.04262957 -0.04030303 34.04262957 -0.04030303 48.8359375 -0.04882812 C58.86198468 -0.05465403 68.88802308 -0.06134142 78.9140625 -0.07543945 C124.95233157 -0.13889342 170.96851285 0.18995905 217 1 C216.67 1.99 216.34 2.98 216 4 C216 3.34 216 2.68 216 2 C192.9 2 169.8 2 146 2 C146.16048828 9.76144531 146.16048828 9.76144531 146.32421875 17.6796875 C146.38512986 20.95181122 146.4451507 24.22390245 146.50195312 27.49609375 C146.59225934 32.69341271 146.68591109 37.89052423 146.79907227 43.08740234 C146.89006873 47.27581649 146.96640494 51.4642617 147.03244972 55.65314102 C147.06028707 57.2536737 147.09346568 58.85412243 147.13199425 60.45443344 C147.18493709 62.69082898 147.21912021 64.92676604 147.2487793 67.16357422 C147.27320602 68.43820526 147.29763275 69.7128363 147.32279968 71.02609253 C147.16301384 72.49817673 147.16301384 72.49817673 147 74 C146.01 74.66 145.02 75.32 144 76 C144 75.34 144 74.68 144 74 C120.57 74 97.14 74 73 74 C73.33 97.1 73.66 120.2 74 144 C89.71223977 128.20854365 89.71223977 128.20854365 105.41357422 112.40625 C108.45141602 109.359375 108.45141602 109.359375 109.87356567 107.93554688 C110.86865452 106.9373812 111.86175702 105.93723299 112.853302 104.93554688 C114.35316415 103.42111157 115.85915388 101.91303189 117.36669922 100.40625 C118.21497284 99.55353516 119.06324646 98.70082031 119.93722534 97.82226562 C122 96 122 96 124 96 C124.99 94.02 124.99 94.02 126 92 C126.33 92.66 126.66 93.32 127 94 C123.8384488 97.88419147 120.54871426 101.46791338 117 105 C115.55593017 106.44346266 114.11219916 107.88726432 112.66870117 109.33129883 C100.44580078 121.55419922 88.22290039 133.77709961 76 146 C77.98 148.31 79.96 150.62 82 153 C81.67 153.66 81.34 154.32 81 155 C75.82979796 151.67068712 71.64784451 148.55596364 70.09002686 142.40985107 C69.67873008 138.07268872 69.81710479 133.74627672 69.9609375 129.3984375 C69.98176552 127.79143118 69.9992553 126.18437847 70.01358032 124.57730103 C70.05465035 121.22221271 70.13085078 117.87035961 70.23339844 114.51660156 C70.36231078 110.2313108 70.4106432 105.94968285 70.43367577 101.66266441 C70.45907532 98.34862379 70.52327274 95.03620982 70.59941483 91.7229805 C70.63185017 90.14361824 70.65331993 88.5639891 70.663311 86.98432541 C70.77631215 74.85322793 70.77631215 74.85322793 73.35797119 70.94340515 C75.17431641 69.38305664 75.17431641 69.38305664 77.36734009 67.87658691 C80.84677146 65.39641264 83.69803936 62.45918337 86.69140625 59.42211914 C87.98202151 58.13058124 89.27304878 56.83945495 90.56445312 55.54870605 C91.89720274 54.21092318 93.22988564 52.87307385 94.5625 51.53515625 C95.80511055 50.29107269 97.04794851 49.04721623 98.29101562 47.80358887 C102.86342458 43.22596863 107.43145523 38.64397677 112 34.0625 C122.23 23.811875 132.46 13.56125 143 3 C96.47 3 49.94 3 2 3 C1.67 26.76 1.34 50.52 1 75 C0.67 75 0.34 75 0 75 C0 50.25 0 25.5 0 0 Z M144 4 C143.07453446 5.02169607 142.18207756 6.07322847 141.30053711 7.13305664 C136.21377351 13.02362582 130.66609713 18.44511122 125.14813423 23.92703056 C123.15826226 25.90402321 121.17163295 27.88422473 119.18577576 29.86524963 C114.98083633 34.0588343 110.77194323 38.24843684 106.5625 42.4375 C101.65864533 47.3177631 96.75641925 52.1996396 91.85835075 57.08571053 C89.89705698 59.04050318 87.93278833 60.99227323 85.96839905 62.94395447 C84.77769619 64.13102828 83.58713155 65.31824076 82.39672852 66.50561523 C81.84668152 67.05049591 81.29663452 67.59537659 80.72991943 68.1567688 C79.46749645 69.4190119 78.2306302 70.70674103 77 72 C77 72.33 77 72.66 77 73 C99.44 73 121.88 73 145 73 C145 50.23 145 27.46 145 4 C144.67 4 144.34 4 144 4 Z " fill="#4C78CB" transform="translate(0,74)"/>
<path d="M0 0 C34.04262957 -0.04030303 34.04262957 -0.04030303 48.8359375 -0.04882812 C58.86198468 -0.05465403 68.88802308 -0.06134142 78.9140625 -0.07543945 C124.95233157 -0.13889342 170.96851285 0.18995905 217 1 C216.67 1.99 216.34 2.98 216 4 C216 3.34 216 2.68 216 2 C192.9 2 169.8 2 146 2 C146.33 25.43 146.66 48.86 147 73 C146.34 73 145.68 73 145 73 C144.67 49.9 144.34 26.8 144 3 C97.14 3 50.28 3 2 3 C1.67 26.76 1.34 50.52 1 75 C0.67 75 0.34 75 0 75 C0 50.25 0 25.5 0 0 Z " fill="#A7BCE5" transform="translate(0,74)"/>
<path d="M0 0 C0.33 0.66 0.66 1.32 1 2 C0.34 2 -0.32 2 -1 2 C-0.67 25.1 -0.34 48.2 0 72 C15.71223977 56.20854365 15.71223977 56.20854365 31.41357422 40.40625 C34.45141602 37.359375 34.45141602 37.359375 35.87356567 35.93554688 C36.86865452 34.9373812 37.86175702 33.93723299 38.853302 32.93554688 C40.35316415 31.42111157 41.85915388 29.91303189 43.36669922 28.40625 C44.21497284 27.55353516 45.06324646 26.70082031 45.93722534 25.82226562 C48 24 48 24 50 24 C50.66 22.68 51.32 21.36 52 20 C52.495 20.99 52.495 20.99 53 22 C49.8384488 25.88419147 46.54871426 29.46791338 43 33 C41.55593017 34.44346266 40.11219916 35.88726432 38.66870117 37.33129883 C26.44580078 49.55419922 14.22290039 61.77709961 2 74 C4.97 77.465 4.97 77.465 8 81 C7.505 81.99 7.505 81.99 7 83 C1.78279065 79.67667883 -2.39367187 76.57993505 -3.8550415 70.36178589 C-4.19036641 65.95282642 -3.96988358 61.56250698 -3.7578125 57.15234375 C-3.71665922 55.52863532 -3.6800188 53.90480683 -3.64767456 52.28089905 C-3.55104838 48.03232416 -3.39368642 43.78815379 -3.2230835 39.54199219 C-3.05952607 35.19891667 -2.95417681 30.85445916 -2.84375 26.50976562 C-2.61906706 18.00410637 -2.33012464 9.50221699 -2 1 C-1.34 0.67 -0.68 0.34 0 0 Z " fill="#557FCE" transform="translate(74,146)"/>
<path d="M0 0 C0.99 0.495 0.99 0.495 2 1 C-4.62325278 8.99833654 -12.06170507 16.22570644 -19.39453125 23.5625 C-20.79228344 24.96346929 -22.18996189 26.36451216 -23.58757019 27.765625 C-26.50151675 30.68552946 -29.41749236 33.60339012 -32.3347168 36.52001953 C-36.08030447 40.26550486 -39.81892384 44.01786524 -43.55588245 47.7719574 C-46.43226992 50.65942462 -49.31315146 53.54237477 -52.19534874 56.42404175 C-53.57691602 57.80679181 -54.95685577 59.19116993 -56.33515358 60.57717896 C-58.25236215 62.5041216 -60.17572535 64.42470057 -62.10083008 66.34375 C-62.67173874 66.92027817 -63.2426474 67.49680634 -63.83085632 68.09080505 C-67.77167347 72 -67.77167347 72 -70 72 C-68.71403737 69.17615633 -67.37292429 67.12431572 -65.177948 64.93743896 C-64.60303619 64.35977783 -64.02812439 63.7821167 -63.43579102 63.18695068 C-62.49280151 62.25474701 -62.49280151 62.25474701 -61.53076172 61.30371094 C-60.53545944 60.30797058 -60.53545944 60.30797058 -59.52005005 59.29211426 C-57.3279703 57.10142667 -55.12889375 54.91790636 -52.9296875 52.734375 C-51.40753361 51.21595163 -49.88582098 49.69708579 -48.36453247 48.17779541 C-44.36090745 44.1818037 -40.35131241 40.19185471 -36.3404541 36.203125 C-32.24809371 32.13122945 -28.16139471 28.05366074 -24.07421875 23.9765625 C-16.05501695 15.97880529 -8.02949819 7.98741897 0 0 Z " fill="#5781CE" transform="translate(217,3)"/>
<path d="M0 0 C46.86 0 93.72 0 142 0 C140 2 140 2 137.61432457 2.23047829 C136.10166228 2.21665139 136.10166228 2.21665139 134.55844116 2.20254517 C133.40295273 2.19688034 132.24746429 2.19121552 131.05696106 2.18537903 C129.78310043 2.16883774 128.50923981 2.15229645 127.19677734 2.13525391 C125.84675221 2.12483167 124.49671999 2.11529572 123.14668274 2.10658264 C119.47531061 2.08036377 115.80416116 2.04169877 112.13292646 2.00085878 C108.29860722 1.96030147 104.46420221 1.93110729 100.62979126 1.90072632 C93.36595485 1.84143693 86.10225429 1.77187512 78.8385464 1.69865549 C70.5702836 1.61580747 62.30193471 1.54436108 54.03355861 1.47388959 C37.02224432 1.32864554 20.01109425 1.16902732 3 1 C2.67 1.99 2.34 2.98 2 4 C1.34 2.68 0.68 1.36 0 0 Z " fill="#F1F4FA" transform="translate(2,76)"/>
<path d="M0 0 C0.33 0.66 0.66 1.32 1 2 C0.34 2 -0.32 2 -1 2 C-0.67 26.42 -0.34 50.84 0 76 C-3 73 -3 73 -3.32279968 69.90583801 C-3.29837296 68.63342758 -3.27394623 67.36101715 -3.2487793 66.05004883 C-3.23946381 65.34735367 -3.23014832 64.64465851 -3.22055054 63.92066956 C-3.18618623 61.59896571 -3.13029361 59.27830384 -3.07421875 56.95703125 C-3.04618521 55.34708369 -3.01949484 53.73711223 -2.99409485 52.12712097 C-2.92363757 47.89026044 -2.83492009 43.65397074 -2.74243164 39.4175415 C-2.65126916 35.09431268 -2.57732998 30.77079338 -2.50195312 26.44726562 C-2.35151762 17.96446372 -2.18179557 9.48218748 -2 1 C-1.34 0.67 -0.68 0.34 0 0 Z " fill="#7B9CD9" transform="translate(74,146)"/>
<path d="M0 0 C0.33 0.66 0.66 1.32 1 2 C-2.60575001 6.58913637 -6.47384007 10.32167983 -11 14 C-11.66 13.67 -12.32 13.34 -13 13 C-11.54782324 11.49403892 -10.08807139 9.99537896 -8.625 8.5 C-7.40683594 7.24703125 -7.40683594 7.24703125 -6.1640625 5.96875 C-4 4 -4 4 -2 4 C-1.34 2.68 -0.68 1.36 0 0 Z " fill="#6D91D4" transform="translate(126,166)"/>
</svg>
